<?xml version="1.0" encoding="UTF-8"?>
<svg id="Layer_1" data-name="Layer 1" xmlns="http://www.w3.org/2000/svg" version="1.1" viewBox="0 0 256 256">
  <g id="Group">
    <g id="Rectangle_55" data-name="Rectangle 55">
      <path d="M169.1,95.8h-48.9V0h48.9c26.4,0,47.9,21.5,47.9,47.9s-21.5,47.9-47.9,47.9ZM135.8,80.1h33.2c17.8,0,32.2-14.4,32.2-32.2s-14.4-32.2-32.2-32.2h-33.2v64.4Z"/>
    </g>
    <g id="Rectangle_55_2" data-name="Rectangle 55_2">
      <path d="M135.8,95.8h-48.9c-26.4,0-47.9-21.5-47.9-47.9S60.5,0,86.9,0h48.9v95.8ZM86.9,15.7c-17.8,0-32.2,14.4-32.2,32.2s14.4,32.2,32.2,32.2h33.2V15.7h-33.2Z"/>
    </g>
    <g id="Rectangle_55_3" data-name="Rectangle 55_3">
      <path d="M135.8,175.9h-48.9c-26.4,0-47.9-21.5-47.9-47.9s21.5-47.9,47.9-47.9h48.9v95.8ZM86.9,95.8c-17.8,0-32.2,14.4-32.2,32.2s14.4,32.2,32.2,32.2h33.2v-64.4h-33.2Z"/>
    </g>
    <g id="Rectangle_55_4" data-name="Rectangle 55_4">
      <path d="M87.2,256c-26.6,0-48.2-21.5-48.2-47.9s21.5-47.9,47.9-47.9h48.9v47.4c0,26.7-21.8,48.4-48.7,48.4ZM86.9,175.9c-17.8,0-32.2,14.4-32.2,32.2s14.6,32.2,32.5,32.2,33-14.7,33-32.7v-31.7h-33.2Z"/>
    </g>
    <g id="Rectangle_55_5" data-name="Rectangle 55_5">
      <path d="M169.1,175.9h-1c-26.4,0-47.9-21.5-47.9-47.9s21.5-47.9,47.9-47.9h1c26.4,0,47.9,21.5,47.9,47.9s-21.5,47.9-47.9,47.9ZM168.1,95.8c-17.8,0-32.2,14.4-32.2,32.2s14.4,32.2,32.2,32.2h1c17.8,0,32.2-14.4,32.2-32.2s-14.4-32.2-32.2-32.2h-1Z"/>
    </g>
  </g>
</svg>