<?xml version="1.0" encoding="UTF-8"?>
<svg id="Layer_1" data-name="Layer 1" xmlns="http://www.w3.org/2000/svg" version="1.1" viewBox="0 0 256 256">
  <path d="M112,114c-1.1-3.3-2-6.5-3.1-9.8-1.1-3.3-2-6.4-2.9-9.5-.9-3-1.6-5.8-2.3-8.3h-.2c-1,4.6-2.1,9.2-3.6,13.8-1.6,5.1-3.2,10.5-4.9,15.8-1.5,5.4-3.1,10.5-4.7,14.9h27.1c-.6-2.2-1.5-4.9-2.5-7.7-1-2.9-1.9-6-2.9-9.2Z"/>
  <path d="M210.7,3.2H45.3C20.3,3.2,0,23.5,0,48.5v158.9c0,25.1,20.3,45.3,45.3,45.3h165.3c25.1,0,45.3-20.3,45.3-45.3V48.5c0-25.1-20.3-45.3-45.3-45.3ZM156.5,179.1h-22.3c-.7.1-1.5-.4-1.7-1.2l-8.7-25.4h-39.7l-8.1,25.1c-.2,1-1.1,1.6-2,1.5h-20.1c-1.2,0-1.5-.6-1.2-1.9l34.3-98.9c.3-1.1.6-2.2,1.1-3.5.4-2.2.6-4.6.6-6.9-.1-.5.3-1.1.9-1.2h27.6c.9,0,1.3.3,1.4.9l38.9,109.9c.3,1.2,0,1.7-1.1,1.7ZM193.3,177.9c0,1.2-.4,1.7-1.4,1.7h-20.9c-1.1,0-1.6-.6-1.6-1.7v-82.1c0-1.1.4-1.5,1.4-1.5h21.1c1,0,1.4.5,1.4,1.5v82.1ZM191,81.6c-2.5,2.6-6.1,3.9-9.7,3.7h0c-3.5.1-6.9-1.3-9.5-3.7-2.5-2.7-3.7-6.2-3.6-9.8-.1-3.6,1.3-7,3.8-9.5s6-3.7,9.5-3.7,7.4,1.3,9.7,3.7c2.3,2.6,3.6,6,3.5,9.5.1,3.6-1.2,7.1-3.7,9.8Z"/>
</svg>