<?xml version="1.0" encoding="UTF-8"?>
<svg id="Layer_1" data-name="Layer 1" xmlns="http://www.w3.org/2000/svg" version="1.1" viewBox="0 0 256 256">
  <circle cx="128" cy="127.9" r="22.8"/>
  <g>
    <path d="M128,180.3C56.2,180.3,0,157.3,0,128s56.2-52.3,128-52.3,128,23,128,52.3-56.2,52.3-128,52.3ZM128,86.8c-68.9,0-116.9,21.7-116.9,41.2s48,41.2,116.9,41.2,116.9-21.7,116.9-41.2-48-41.2-116.9-41.2Z"/>
    <path d="M179.1,242.1c-11.3,0-25.1-6.2-39.9-18.3-19.7-16-39.8-40.8-56.5-69.7-16.7-28.9-28.1-58.6-32.1-83.7-4.3-26.9.5-45.8,13.4-53.3,25.4-14.6,73.4,22.5,109.3,84.7h0c16.7,28.9,28.1,58.6,32.1,83.7,4.3,26.9-.5,45.8-13.4,53.3-3.8,2.2-8.2,3.3-12.9,3.3ZM76.9,25c-2.8,0-5.2.6-7.3,1.8-8.5,4.9-11.5,20.2-8,41.9,3.8,23.8,14.7,52.2,30.8,79.9,16,27.8,35.1,51.4,53.8,66.6,17,13.9,31.7,19,40.3,14,8.5-4.9,11.5-20.2,8-41.9-3.8-23.8-14.7-52.2-30.8-79.9h0C133.4,55,96.8,25,76.9,25Z"/>
    <path d="M76.9,242.1c-4.8,0-9.1-1.1-12.9-3.3-13-7.5-17.7-26.4-13.4-53.3,4-25.1,15.4-54.8,32.1-83.7C118.6,39.7,166.5,2.4,192,17.1c25.4,14.7,17.2,74.8-18.7,137h0c-16.7,28.9-36.7,53.6-56.5,69.7-14.9,12.1-28.6,18.3-39.9,18.3ZM179.1,25c-19.9,0-56.6,30.1-86.8,82.4-16,27.7-26.9,56.1-30.8,79.9-3.5,21.7-.6,36.9,8,41.9,8.6,4.9,23.2-.2,40.3-14,18.7-15.2,37.8-38.8,53.8-66.6,34.4-59.7,39.6-112.1,22.8-121.8-2.1-1.2-4.5-1.8-7.3-1.8Z"/>
  </g>
</svg>