<?xml version="1.0" encoding="UTF-8"?>
<svg id="Layer_1" data-name="Layer 1" xmlns="http://www.w3.org/2000/svg" version="1.1" viewBox="0 0 256 256">
  <defs>
    <style>
      .cls-1 {
        fill: #fff;
        stroke-width: 0px;
      }
    </style>
  </defs>
  <path class="cls-1" d="M128,256c-3.5,0-6.8-.9-9.9-2.6l-31.3-18.6c-4.7-2.6-2.4-3.5-.9-4,6.3-2.1,7.5-2.6,14.1-6.4.7-.5,1.6-.2,2.4.2l24,14.3c.9.5,2.1.5,2.8,0l93.8-54.3c.9-.5,1.4-1.4,1.4-2.6v-108.4c0-1.2-.5-2.1-1.4-2.6l-93.8-54.1c-.9-.5-2.1-.5-2.8,0l-93.8,54.1c-.9.5-1.4,1.6-1.4,2.6v108.4c0,.9.5,2.1,1.4,2.6l25.6,14.8c13.9,7.1,22.6-1.2,22.6-9.4v-107c0-1.4,1.2-2.8,2.8-2.8h12c1.4,0,2.8,1.2,2.8,2.8v107c0,18.6-10.1,29.4-27.7,29.4s-9.6,0-21.6-5.9l-24.7-14.1c-6.1-3.5-9.9-10.1-9.9-17.2v-108.4c0-7.1,3.8-13.6,9.9-17.2L118.1,2.5c5.9-3.3,13.9-3.3,19.8,0l93.8,54.3c6.1,3.5,9.9,10.1,9.9,17.2v108.4c0,7.1-3.8,13.6-9.9,17.2l-93.8,54.3c-2.8,1.2-6.3,2.1-9.9,2.1Z"/>
  <path class="cls-1" d="M157.2,181.4c-41.1,0-49.6-18.8-49.6-34.8s1.2-2.8,2.8-2.8h12.2c1.4,0,2.6.9,2.6,2.4,1.9,12.5,7.3,18.6,32.2,18.6s28.2-4.5,28.2-15.1-2.4-10.6-33.2-13.6c-25.6-2.6-41.6-8.2-41.6-28.7s16-30.3,42.8-30.3,44.9,10.3,46.8,32.9c0,.7-.2,1.4-.7,2.1-.5.5-1.2.9-1.9.9h-12.5c-1.2,0-2.4-.9-2.6-2.1-2.8-12.9-10.1-17.2-29.4-17.2s-24.2,7.5-24.2,13.2,3.1,8.9,32.2,12.7c28.9,3.8,42.6,9.2,42.6,29.4s-17.2,32.5-46.8,32.5Z"/>
</svg>