<?xml version="1.0" encoding="UTF-8"?>
<svg id="Layer_1" data-name="Layer 1" xmlns="http://www.w3.org/2000/svg" version="1.1" viewBox="0 0 256 256">
  <defs>
    <style>
      .cls-1 {
        fill: #fff;
        stroke-width: 0px;
      }
    </style>
  </defs>
  <path class="cls-1" d="M108.3,89.7c-3.9-1.6-8.2-2.2-12.6-2.1-2.8,0-5.2,0-7.3.1-2.1-.1-3.6,0-4.4.1v35.8c1.5.1,2.9.2,4.2.2h5.7c4.2,0,8.3-.6,12.3-1.9,3.4-1,6.4-3,8.7-5.7,2.2-2.7,3.3-6.3,3.3-11,.1-3.3-.7-6.6-2.5-9.5-1.8-2.8-4.4-4.9-7.5-6.1Z"/>
  <path class="cls-1" d="M210.7,3.2H45.3C20.3,3.2,0,23.5,0,48.5v158.9c0,25.1,20.3,45.3,45.3,45.3h165.3c25.1,0,45.3-20.3,45.3-45.3V48.5c0-25.1-20.3-45.3-45.3-45.3ZM135,127.3c-4.3,6-10.2,10.5-17.2,13-7.3,2.7-15.3,3.6-24,3.6s-4.3,0-5.3-.1c-1.1-.1-2.6-.1-4.6-.1v34.2c.1.7-.4,1.4-1.2,1.5h-20.7c-.9,0-1.3-.4-1.3-1.4v-109.8c0-.7.3-1.2,1.1-1.2,1.8,0,3.5,0,6-.1,2.6-.1,5.2-.1,8.1-.2,2.9-.1,6-.1,9.3-.2,3.3-.1,6.5-.1,9.7-.1,8.7,0,16,1.1,22,3.3,5.3,1.8,10.2,4.8,14.3,8.7,3.4,3.4,6.1,7.6,7.8,12.2,1.6,4.5,2.5,9.1,2.5,13.9,0,9.2-2.1,16.7-6.4,22.7ZM208.2,93.9v20.8c0,.9-.5,1.2-1.7,1.2-3.8-.1-7.8.2-11.5,1.1-3.1.6-6.1,1.6-9,2.9-2,1-3.9,2.2-5.4,3.9v54.4c0,1.1-.4,1.5-1.4,1.5h-21c-.9.1-1.6-.4-1.7-1.3v-59.5c0-2.6,0-5.2-.1-8-.1-2.8-.1-5.5-.2-8.3,0-2.5-.2-4.8-.4-7.3-.1-.5.2-1.1.7-1.2,0-.1.2-.1.3,0h0s18.7,0,18.7,0c1.1,0,1.9.7,2.2,1.7.3.9.5,1.7.6,2.7.2,1.1.4,2.2.5,3.3.1,1.2.2,2.5.2,3.8,3.2-3.7,7-6.8,11.4-9.2,4.9-2.8,10.6-4.2,16.2-4.2.7-.1,1.4.4,1.5,1.2v.4Z"/>
</svg>