<?xml version="1.0" encoding="UTF-8"?>
<svg id="Layer_1" data-name="Layer 1" xmlns="http://www.w3.org/2000/svg" version="1.1" viewBox="0 0 256 256">
  <path d="M91.1,114.5c-1.1-3.3-2-6.5-3.1-9.8-1.1-3.3-2-6.4-2.9-9.5-.9-3-1.6-5.8-2.3-8.3h-.2c-1,4.6-2.1,9.2-3.6,13.8-1.6,5.1-3.2,10.5-4.9,15.8-1.4,5.4-3.1,10.5-4.7,14.9h27.1c-.6-2.2-1.5-4.9-2.5-7.7-1-2.9-1.9-6-2.9-9.2Z"/>
  <path d="M182.2,111.6c-5.9-.3-11.4,2.8-14.2,8.1-1.3,2.5-2,5-2.3,7.7h22.5c2.8,0,4.8,0,6.1-.1.9-.1,1.7-.3,2.5-.9v-1.1c0-1.4-.2-2.7-.6-3.9-1.9-6-7.6-10-13.9-9.8Z"/>
  <path d="M210.7,3.2H45.3C20.3,3.2,0,23.5,0,48.5v158.9c0,25.1,20.3,45.3,45.3,45.3h165.3c25.1,0,45.3-20.3,45.3-45.3V48.5c0-25.1-20.3-45.3-45.3-45.3ZM135.6,178.8h-22.3c-.7.1-1.5-.4-1.7-1.2l-8.7-25.6v.5h-39.7l-8.1,25.2c-.2,1-1.1,1.6-2,1.5h-20.1c-1.2,0-1.5-.6-1.2-1.9l34.3-98.5c.3-1.1.6-2,1.1-3.3.4-2.2.6-4.6.6-6.9-.1-.5.3-1.1.9-1.2h27.6c.7,0,1.3.3,1.4.9l38.9,108.8c.3,1.2,0,1.7-1.1,1.7ZM218.9,137c-.2,2-.3,3.5-.4,4.5-.1.7-.7,1.4-1.5,1.4s-1.8.1-3.5.2c-1.7.2-3.7.3-6.2.3s-5-.4-7.8-.4h0s-33.8,0-33.8,0c.4,3.3,1.5,6.6,3.3,9.5,1.9,2.9,4.6,5.1,7.8,6.4,4.3,1.8,9,2.8,13.7,2.7,3.7-.1,7.5-.4,11.1-1.2,3.3-.4,6.5-1.3,9.5-2.5.5-.4.9-.2.9.9v16.3c0,.4-.1.9-.2,1.3-.2.3-.4.5-.7.7-3.4,1.5-6.9,2.6-10.7,3.2-5,1-10,1.4-15.1,1.3-8.1,0-14.9-1.3-20.5-3.7-5.2-2.2-9.8-5.8-13.4-10.1-3.4-4.2-5.9-8.9-7.4-14-1.5-5-2.2-10.2-2.2-15.6s.9-11.4,2.7-17c1.7-5.3,4.4-10.2,8-14.6,3.5-4.3,7.9-7.7,12.9-10.1,5-2.5,11-3.3,17.8-3.3,5.7-.1,11.3,1,16.5,3.3,4.4,1.9,8.2,4.8,11.2,8.5,2.8,3.6,5,7.7,6.4,12.2,1.4,4.3,2,8.6,2,13s-.1,4.8-.2,6.8Z"/>
</svg>