<?xml version="1.0" encoding="UTF-8"?>
<svg id="Layer_1" data-name="Layer 1" xmlns="http://www.w3.org/2000/svg" version="1.1" viewBox="0 0 256 256">
  <path d="M0,6.7h20.7c67,0,121.3,54.3,121.3,121.3s-54.3,121.3-121.3,121.3H0v-53.3h20.7c37.6,0,68-30.4,68-68S58.2,60,20.7,60H0V6.7ZM96.7,6.7h85.3c40.9,0,74,33.1,74,74,0,17.3-6.1,34-17.1,47.3,26.1,31.4,21.9,78.1-9.5,104.2-13.3,11.1-30,17.1-47.3,17.1h-85.3c21-13.2,38.2-31.5,50-53.3h35.3c11.4,0,20.7-9.3,20.7-20.7s-9.3-20.7-20.7-20.7h-20.7c3.3-17.6,3.3-35.7,0-53.3h20.7c11.4,0,20.7-9.3,20.7-20.7s-9.3-20.7-20.7-20.7h-35.3c-11.8-21.8-29-40.2-50-53.3Z"/>
</svg>