<?xml version="1.0" encoding="UTF-8"?>
<svg id="Layer_1" data-name="Layer 1" xmlns="http://www.w3.org/2000/svg" version="1.1" viewBox="0 0 256 256">
  <path d="M105.1,89.8c-3.9-1.6-8.2-2.2-12.6-2.1-2.8,0-5.2,0-7.3.1-2.1-.1-3.6,0-4.4.1v35.8c1.5.1,2.9.2,4.2.2h5.7c4.2,0,8.3-.6,12.3-1.9,3.4-1,6.4-3,8.7-5.7,2.2-2.7,3.3-6.3,3.3-11,.1-3.3-.7-6.6-2.5-9.5-1.8-2.8-4.4-4.9-7.5-6.1Z"/>
  <path d="M210.7,3.2H45.3C20.3,3.2,0,23.5,0,48.5v158.9c0,25.1,20.3,45.3,45.3,45.3h165.3c25.1,0,45.3-20.3,45.3-45.3V48.5c0-25.1-20.3-45.3-45.3-45.3ZM131.8,127.5c-4.3,6-10.2,10.5-17.2,13-7.3,2.7-15.3,3.6-24,3.6s-4.3,0-5.3-.1c-1.1-.1-2.6-.1-4.6-.1v34.2c.1.7-.4,1.4-1.2,1.5h-20.7c-.9,0-1.3-.4-1.3-1.4v-109.8c0-.7.3-1.2,1.1-1.2,1.8,0,3.5,0,6-.1,2.6-.1,5.2-.1,8.1-.2,2.9-.1,6-.1,9.3-.2,3.3-.1,6.5-.1,9.7-.1,8.7,0,16,1.1,22,3.3,5.3,1.8,10.2,4.8,14.3,8.7,3.4,3.4,6.1,7.6,7.8,12.2,1.6,4.5,2.5,9.1,2.5,13.9,0,9.2-2.1,16.7-6.4,22.7ZM207.5,169c-3,4.3-7.1,7.6-11.9,9.5-5.2,2.2-11.6,3.4-19.3,3.4s-9.7-.4-14.5-1.4c-3.7-.6-7.5-1.8-10.9-3.4-.7-.4-1.3-1.2-1.2-2v-18.6c0-.3.1-.7.4-1s.6-.1,1,.1c4.2,2.5,8.5,4.2,13.2,5.2,4.1,1.1,8.3,1.6,12.6,1.6s6.9-.5,8.9-1.5c1.7-.7,2.9-2.6,2.9-4.5s-.9-2.9-2.6-4.3c-1.7-1.4-5.2-3-10.5-5-5.4-1.9-10.5-4.5-15.1-7.7-3.3-2.3-6.1-5.4-8.1-9.1-1.7-3.4-2.6-7.1-2.5-10.9,0-4.6,1.3-9,3.6-12.9,2.7-4.3,6.6-7.7,11.2-9.8,5-2.6,11.3-3.7,18.9-3.7s8.9.3,13.2,1c3.2.4,6.3,1.3,9.2,2.5.4.1.9.5,1.1,1,.1.4.2.9.2,1.3v17.4c0,.4-.2.9-.5,1.1-1,.2-1.5.2-1.9,0-3.2-1.7-6.6-2.9-10.2-3.6-3.9-.9-7.9-1.4-11.9-1.4-2.1-.1-4.4.2-6.4.7-1.4.3-2.6,1.1-3.3,2.1-.5.9-.9,1.9-.9,2.9s.4,1.9,1.1,2.8c1,1.2,2.2,2.1,3.6,2.9,2.5,1.3,5,2.5,7.6,3.5,5.8,1.9,11.3,4.6,16.4,7.8,3.5,2.2,6.4,5.2,8.4,8.9,1.7,3.4,2.6,7.1,2.5,11,.1,5-1.4,10-4.2,14.2Z"/>
</svg>